<?xml version="1.0" encoding="utf-8"?>
<!-- Generator: Adobe Illustrator 21.1.0, SVG Export Plug-In . SVG Version: 6.00 Build 0)  -->
<svg version="1.1" id="Слой_1" xmlns="http://www.w3.org/2000/svg" xmlns:xlink="http://www.w3.org/1999/xlink" x="0px" y="0px"
	 viewBox="0 0 331 207" style="enable-background:new 0 0 331 207;" xml:space="preserve">
<g id="lines">
	
		<linearGradient id="SVGID_1_" gradientUnits="userSpaceOnUse" x1="35.4377" y1="99.9503" x2="346.4052" y2="99.9503" gradientTransform="matrix(0.9971 7.638922e-02 -7.638922e-02 0.9971 -20.4096 -13.1888)">
		<stop  offset="0" style="stop-color:#281464"/>
		<stop  offset="1" style="stop-color:#86278F"/>
	</linearGradient>
	<polygon style="fill:url(#SVGID_1_);stroke:#FFFFFF;stroke-linecap:round;stroke-linejoin:round;stroke-miterlimit:10;" points="
		24.2,33.3 39.8,44.2 41.1,26.9 67.5,61.8 84.9,74.8 115.8,63.6 160.8,69.9 189.1,106 192,67.5 216.6,12.2 249.2,4.1 286.7,6.9 
		324,26.3 308.8,60 258.8,81.3 257.6,121.9 232.1,151 231.1,163.5 181.5,180 171.7,193.8 138.9,191.3 145.8,203.4 82.3,197.6 
		85,187.1 119.5,191.7 115.4,182.7 101.4,163.2 91.2,170.2 65.8,173.1 31.8,160.8 18.9,153 29.2,144.1 43.5,147.2 67.7,148 
		54.4,118.9 41.2,127.6 27.8,124.6 13.4,123.5 5.1,118.1 10.2,114.6 11.9,92.4 21.7,77.7 42.4,60.9 	"/>
	
		<linearGradient id="SVGID_2_" gradientUnits="userSpaceOnUse" x1="40.2664" y1="119.7479" x2="58.6154" y2="119.7479" gradientTransform="matrix(0.9971 7.638922e-02 -7.638922e-02 0.9971 -20.4096 -13.1888)">
		<stop  offset="0" style="stop-color:#281464"/>
		<stop  offset="1" style="stop-color:#86278F"/>
	</linearGradient>
	
		<line style="fill:url(#SVGID_2_);stroke:#FFFFFF;stroke-linecap:round;stroke-linejoin:round;stroke-miterlimit:10;" x1="10.2" y1="114.6" x2="29.3" y2="105.4"/>
	
		<linearGradient id="SVGID_3_" gradientUnits="userSpaceOnUse" x1="40.2664" y1="129.4053" x2="44.1294" y2="129.4053" gradientTransform="matrix(0.9971 7.638922e-02 -7.638922e-02 0.9971 -20.4096 -13.1888)">
		<stop  offset="0" style="stop-color:#281464"/>
		<stop  offset="1" style="stop-color:#86278F"/>
	</linearGradient>
	
		<line style="fill:url(#SVGID_3_);stroke:#FFFFFF;stroke-linecap:round;stroke-linejoin:round;stroke-miterlimit:10;" x1="13.4" y1="123.5" x2="10.2" y2="114.6"/>
	
		<linearGradient id="SVGID_4_" gradientUnits="userSpaceOnUse" x1="58.6154" y1="124.0937" x2="58.6154" y2="124.0937" gradientTransform="matrix(0.9971 7.638922e-02 -7.638922e-02 0.9971 -20.4096 -13.1888)">
		<stop  offset="0" style="stop-color:#281464"/>
		<stop  offset="1" style="stop-color:#86278F"/>
	</linearGradient>
	
		<line style="fill:url(#SVGID_4_);stroke:#FFFFFF;stroke-linecap:round;stroke-linejoin:round;stroke-miterlimit:10;" x1="29.3" y1="105.4" x2="27.8" y2="124.6"/>
	
		<linearGradient id="SVGID_5_" gradientUnits="userSpaceOnUse" x1="40.2664" y1="108.6419" x2="58.6154" y2="108.6419" gradientTransform="matrix(0.9971 7.638922e-02 -7.638922e-02 0.9971 -20.4096 -13.1888)">
		<stop  offset="0" style="stop-color:#281464"/>
		<stop  offset="1" style="stop-color:#86278F"/>
	</linearGradient>
	
		<line style="fill:url(#SVGID_5_);stroke:#FFFFFF;stroke-linecap:round;stroke-linejoin:round;stroke-miterlimit:10;" x1="11.9" y1="92.4" x2="29.3" y2="105.4"/>
	
		<linearGradient id="SVGID_6_" gradientUnits="userSpaceOnUse" x1="58.6154" y1="120.2308" x2="84.6903" y2="120.2308" gradientTransform="matrix(0.9971 7.638922e-02 -7.638922e-02 0.9971 -20.4096 -13.1888)">
		<stop  offset="0" style="stop-color:#281464"/>
		<stop  offset="1" style="stop-color:#86278F"/>
	</linearGradient>
	
		<line style="fill:url(#SVGID_6_);stroke:#FFFFFF;stroke-linecap:round;stroke-linejoin:round;stroke-miterlimit:10;" x1="54.4" y1="118.9" x2="29.3" y2="105.4"/>
	
		<linearGradient id="SVGID_7_" gradientUnits="userSpaceOnUse" x1="58.6154" y1="100.916" x2="96.2792" y2="100.916" gradientTransform="matrix(0.9971 7.638922e-02 -7.638922e-02 0.9971 -20.4096 -13.1888)">
		<stop  offset="0" style="stop-color:#281464"/>
		<stop  offset="1" style="stop-color:#86278F"/>
	</linearGradient>
	
		<line style="fill:url(#SVGID_7_);stroke:#FFFFFF;stroke-linecap:round;stroke-linejoin:round;stroke-miterlimit:10;" x1="68.9" y1="81.3" x2="29.3" y2="105.4"/>
	
		<linearGradient id="SVGID_8_" gradientUnits="userSpaceOnUse" x1="48.9581" y1="87.3957" x2="96.2792" y2="87.3957" gradientTransform="matrix(0.9971 7.638922e-02 -7.638922e-02 0.9971 -20.4096 -13.1888)">
		<stop  offset="0" style="stop-color:#281464"/>
		<stop  offset="1" style="stop-color:#86278F"/>
	</linearGradient>
	
		<line style="fill:url(#SVGID_8_);stroke:#FFFFFF;stroke-linecap:round;stroke-linejoin:round;stroke-miterlimit:10;" x1="68.9" y1="81.3" x2="21.7" y2="77.7"/>
	
		<linearGradient id="SVGID_9_" gradientUnits="userSpaceOnUse" x1="48.9581" y1="100.916" x2="58.6154" y2="100.916" gradientTransform="matrix(0.9971 7.638922e-02 -7.638922e-02 0.9971 -20.4096 -13.1888)">
		<stop  offset="0" style="stop-color:#281464"/>
		<stop  offset="1" style="stop-color:#86278F"/>
	</linearGradient>
	
		<line style="fill:url(#SVGID_9_);stroke:#FFFFFF;stroke-linecap:round;stroke-linejoin:round;stroke-miterlimit:10;" x1="21.7" y1="77.7" x2="29.3" y2="105.4"/>
	
		<linearGradient id="SVGID_10_" gradientUnits="userSpaceOnUse" x1="68.2728" y1="78.2212" x2="96.2792" y2="78.2212" gradientTransform="matrix(0.9971 7.638922e-02 -7.638922e-02 0.9971 -20.4096 -13.1888)">
		<stop  offset="0" style="stop-color:#281464"/>
		<stop  offset="1" style="stop-color:#86278F"/>
	</linearGradient>
	
		<line style="fill:url(#SVGID_10_);stroke:#FFFFFF;stroke-linecap:round;stroke-linejoin:round;stroke-miterlimit:10;" x1="42.4" y1="60.9" x2="68.9" y2="81.3"/>
	
		<linearGradient id="SVGID_11_" gradientUnits="userSpaceOnUse" x1="68.2728" y1="68.5638" x2="93.382" y2="68.5638" gradientTransform="matrix(0.9971 7.638922e-02 -7.638922e-02 0.9971 -20.4096 -13.1888)">
		<stop  offset="0" style="stop-color:#281464"/>
		<stop  offset="1" style="stop-color:#86278F"/>
	</linearGradient>
	
		<line style="fill:url(#SVGID_11_);stroke:#FFFFFF;stroke-linecap:round;stroke-linejoin:round;stroke-miterlimit:10;" x1="67.5" y1="61.8" x2="42.4" y2="60.9"/>
	
		<linearGradient id="SVGID_12_" gradientUnits="userSpaceOnUse" x1="93.382" y1="77.7383" x2="96.2792" y2="77.7383" gradientTransform="matrix(0.9971 7.638922e-02 -7.638922e-02 0.9971 -20.4096 -13.1888)">
		<stop  offset="0" style="stop-color:#281464"/>
		<stop  offset="1" style="stop-color:#86278F"/>
	</linearGradient>
	
		<line style="fill:url(#SVGID_12_);stroke:#FFFFFF;stroke-linecap:round;stroke-linejoin:round;stroke-miterlimit:10;" x1="68.9" y1="81.3" x2="67.5" y2="61.8"/>
	
		<linearGradient id="SVGID_13_" gradientUnits="userSpaceOnUse" x1="96.2792" y1="83.5327" x2="111.731" y2="83.5327" gradientTransform="matrix(0.9971 7.638922e-02 -7.638922e-02 0.9971 -20.4096 -13.1888)">
		<stop  offset="0" style="stop-color:#281464"/>
		<stop  offset="1" style="stop-color:#86278F"/>
	</linearGradient>
	
		<line style="fill:url(#SVGID_13_);stroke:#FFFFFF;stroke-linecap:round;stroke-linejoin:round;stroke-miterlimit:10;" x1="84.9" y1="74.8" x2="68.9" y2="81.3"/>
	
		<linearGradient id="SVGID_14_" gradientUnits="userSpaceOnUse" x1="84.6903" y1="106.7104" x2="96.2792" y2="106.7104" gradientTransform="matrix(0.9971 7.638922e-02 -7.638922e-02 0.9971 -20.4096 -13.1888)">
		<stop  offset="0" style="stop-color:#281464"/>
		<stop  offset="1" style="stop-color:#86278F"/>
	</linearGradient>
	
		<line style="fill:url(#SVGID_14_);stroke:#FFFFFF;stroke-linecap:round;stroke-linejoin:round;stroke-miterlimit:10;" x1="54.4" y1="118.9" x2="68.9" y2="81.3"/>
	
		<linearGradient id="SVGID_15_" gradientUnits="userSpaceOnUse" x1="84.6903" y1="102.8475" x2="111.731" y2="102.8475" gradientTransform="matrix(0.9971 7.638922e-02 -7.638922e-02 0.9971 -20.4096 -13.1888)">
		<stop  offset="0" style="stop-color:#281464"/>
		<stop  offset="1" style="stop-color:#86278F"/>
	</linearGradient>
	
		<line style="fill:url(#SVGID_15_);stroke:#FFFFFF;stroke-linecap:round;stroke-linejoin:round;stroke-miterlimit:10;" x1="84.9" y1="74.8" x2="54.4" y2="118.9"/>
	
		<linearGradient id="SVGID_16_" gradientUnits="userSpaceOnUse" x1="84.6903" y1="136.1654" x2="125.2513" y2="136.1654" gradientTransform="matrix(0.9971 7.638922e-02 -7.638922e-02 0.9971 -20.4096 -13.1888)">
		<stop  offset="0" style="stop-color:#281464"/>
		<stop  offset="1" style="stop-color:#86278F"/>
	</linearGradient>
	
		<line style="fill:url(#SVGID_16_);stroke:#FFFFFF;stroke-linecap:round;stroke-linejoin:round;stroke-miterlimit:10;" x1="93.3" y1="142.3" x2="54.4" y2="118.9"/>
	
		<linearGradient id="SVGID_17_" gradientUnits="userSpaceOnUse" x1="100.1421" y1="150.1686" x2="125.2513" y2="150.1686" gradientTransform="matrix(0.9971 7.638922e-02 -7.638922e-02 0.9971 -20.4096 -13.1888)">
		<stop  offset="0" style="stop-color:#281464"/>
		<stop  offset="1" style="stop-color:#86278F"/>
	</linearGradient>
	
		<line style="fill:url(#SVGID_17_);stroke:#FFFFFF;stroke-linecap:round;stroke-linejoin:round;stroke-miterlimit:10;" x1="67.7" y1="148" x2="93.3" y2="142.3"/>
	
		<linearGradient id="SVGID_18_" gradientUnits="userSpaceOnUse" x1="100.1421" y1="166.5862" x2="100.1421" y2="166.5862" gradientTransform="matrix(0.9971 7.638922e-02 -7.638922e-02 0.9971 -20.4096 -13.1888)">
		<stop  offset="0" style="stop-color:#281464"/>
		<stop  offset="1" style="stop-color:#86278F"/>
	</linearGradient>
	
		<line style="fill:url(#SVGID_18_);stroke:#FFFFFF;stroke-linecap:round;stroke-linejoin:round;stroke-miterlimit:10;" x1="65.8" y1="173.1" x2="67.7" y2="148"/>
	
		<linearGradient id="SVGID_19_" gradientUnits="userSpaceOnUse" x1="65.3756" y1="162.2403" x2="75.9987" y2="162.2403" gradientTransform="matrix(0.9971 7.638922e-02 -7.638922e-02 0.9971 -20.4096 -13.1888)">
		<stop  offset="0" style="stop-color:#281464"/>
		<stop  offset="1" style="stop-color:#86278F"/>
	</linearGradient>
	
		<line style="fill:url(#SVGID_19_);stroke:#FFFFFF;stroke-linecap:round;stroke-linejoin:round;stroke-miterlimit:10;" x1="43.5" y1="147.2" x2="31.8" y2="160.8"/>
	
		<linearGradient id="SVGID_20_" gradientUnits="userSpaceOnUse" x1="125.2513" y1="140.0284" x2="132.9772" y2="140.0284" gradientTransform="matrix(0.9971 7.638922e-02 -7.638922e-02 0.9971 -20.4096 -13.1888)">
		<stop  offset="0" style="stop-color:#281464"/>
		<stop  offset="1" style="stop-color:#86278F"/>
	</linearGradient>
	
		<line style="fill:url(#SVGID_20_);stroke:#FFFFFF;stroke-linecap:round;stroke-linejoin:round;stroke-miterlimit:10;" x1="102" y1="130.3" x2="93.3" y2="142.3"/>
	
		<linearGradient id="SVGID_21_" gradientUnits="userSpaceOnUse" x1="111.731" y1="106.7104" x2="132.9772" y2="106.7104" gradientTransform="matrix(0.9971 7.638922e-02 -7.638922e-02 0.9971 -20.4096 -13.1888)">
		<stop  offset="0" style="stop-color:#281464"/>
		<stop  offset="1" style="stop-color:#86278F"/>
	</linearGradient>
	
		<line style="fill:url(#SVGID_21_);stroke:#FFFFFF;stroke-linecap:round;stroke-linejoin:round;stroke-miterlimit:10;" x1="84.9" y1="74.8" x2="102" y2="130.3"/>
	
		<linearGradient id="SVGID_22_" gradientUnits="userSpaceOnUse" x1="134.9087" y1="127.4738" x2="147.4633" y2="127.4738" gradientTransform="matrix(0.9971 7.638922e-02 -7.638922e-02 0.9971 -20.4096 -13.1888)">
		<stop  offset="0" style="stop-color:#281464"/>
		<stop  offset="1" style="stop-color:#86278F"/>
	</linearGradient>
	
		<line style="fill:url(#SVGID_22_);stroke:#FFFFFF;stroke-linecap:round;stroke-linejoin:round;stroke-miterlimit:10;" x1="118" y1="111.2" x2="103.3" y2="138.2"/>
	
		<linearGradient id="SVGID_23_" gradientUnits="userSpaceOnUse" x1="132.9772" y1="137.614" x2="134.9087" y2="137.614" gradientTransform="matrix(0.9971 7.638922e-02 -7.638922e-02 0.9971 -20.4096 -13.1888)">
		<stop  offset="0" style="stop-color:#281464"/>
		<stop  offset="1" style="stop-color:#86278F"/>
	</linearGradient>
	
		<line style="fill:url(#SVGID_23_);stroke:#FFFFFF;stroke-linecap:round;stroke-linejoin:round;stroke-miterlimit:10;" x1="102" y1="130.3" x2="103.3" y2="138.2"/>
	
		<linearGradient id="SVGID_24_" gradientUnits="userSpaceOnUse" x1="125.2513" y1="156.4459" x2="134.9087" y2="156.4459" gradientTransform="matrix(0.9971 7.638922e-02 -7.638922e-02 0.9971 -20.4096 -13.1888)">
		<stop  offset="0" style="stop-color:#281464"/>
		<stop  offset="1" style="stop-color:#86278F"/>
	</linearGradient>
	
		<line style="fill:url(#SVGID_24_);stroke:#FFFFFF;stroke-linecap:round;stroke-linejoin:round;stroke-miterlimit:10;" x1="93.3" y1="142.3" x2="101.4" y2="163.2"/>
	
		<linearGradient id="SVGID_25_" gradientUnits="userSpaceOnUse" x1="134.9087" y1="154.0316" x2="134.9087" y2="154.0316" gradientTransform="matrix(0.9971 7.638922e-02 -7.638922e-02 0.9971 -20.4096 -13.1888)">
		<stop  offset="0" style="stop-color:#281464"/>
		<stop  offset="1" style="stop-color:#86278F"/>
	</linearGradient>
	
		<line style="fill:url(#SVGID_25_);stroke:#FFFFFF;stroke-linecap:round;stroke-linejoin:round;stroke-miterlimit:10;" x1="103.3" y1="138.2" x2="101.4" y2="163.2"/>
	
		<linearGradient id="SVGID_26_" gradientUnits="userSpaceOnUse" x1="150.3605" y1="188.3152" x2="174.5039" y2="188.3152" gradientTransform="matrix(0.9971 7.638922e-02 -7.638922e-02 0.9971 -20.4096 -13.1888)">
		<stop  offset="0" style="stop-color:#281464"/>
		<stop  offset="1" style="stop-color:#86278F"/>
	</linearGradient>
	
		<line style="fill:url(#SVGID_26_);stroke:#FFFFFF;stroke-linecap:round;stroke-linejoin:round;stroke-miterlimit:10;" x1="138.9" y1="191.3" x2="115.4" y2="182.7"/>
	
		<linearGradient id="SVGID_27_" gradientUnits="userSpaceOnUse" x1="155.1892" y1="198.4555" x2="182.2298" y2="198.4555" gradientTransform="matrix(0.9971 7.638922e-02 -7.638922e-02 0.9971 -20.4096 -13.1888)">
		<stop  offset="0" style="stop-color:#281464"/>
		<stop  offset="1" style="stop-color:#86278F"/>
	</linearGradient>
	
		<line style="fill:url(#SVGID_27_);stroke:#FFFFFF;stroke-linecap:round;stroke-linejoin:round;stroke-miterlimit:10;" x1="145.8" y1="203.4" x2="119.5" y2="191.7"/>
	
		<linearGradient id="SVGID_28_" gradientUnits="userSpaceOnUse" x1="174.5039" y1="152.583" x2="174.5039" y2="152.583" gradientTransform="matrix(0.9971 7.638922e-02 -7.638922e-02 0.9971 -20.4096 -13.1888)">
		<stop  offset="0" style="stop-color:#281464"/>
		<stop  offset="1" style="stop-color:#86278F"/>
	</linearGradient>
	
		<line style="fill:url(#SVGID_28_);stroke:#FFFFFF;stroke-linecap:round;stroke-linejoin:round;stroke-miterlimit:10;" x1="144.9" y1="113.3" x2="138.9" y2="191.3"/>
	
		<linearGradient id="SVGID_29_" gradientUnits="userSpaceOnUse" x1="134.9087" y1="166.5862" x2="174.5039" y2="166.5862" gradientTransform="matrix(0.9971 7.638922e-02 -7.638922e-02 0.9971 -20.4096 -13.1888)">
		<stop  offset="0" style="stop-color:#281464"/>
		<stop  offset="1" style="stop-color:#86278F"/>
	</linearGradient>
	
		<line style="fill:url(#SVGID_29_);stroke:#FFFFFF;stroke-linecap:round;stroke-linejoin:round;stroke-miterlimit:10;" x1="103.3" y1="138.2" x2="138.9" y2="191.3"/>
	
		<linearGradient id="SVGID_30_" gradientUnits="userSpaceOnUse" x1="147.4633" y1="113.4706" x2="174.5039" y2="113.4706" gradientTransform="matrix(0.9971 7.638922e-02 -7.638922e-02 0.9971 -20.4096 -13.1888)">
		<stop  offset="0" style="stop-color:#281464"/>
		<stop  offset="1" style="stop-color:#86278F"/>
	</linearGradient>
	
		<line style="fill:url(#SVGID_30_);stroke:#FFFFFF;stroke-linecap:round;stroke-linejoin:round;stroke-miterlimit:10;" x1="118" y1="111.2" x2="144.9" y2="113.3"/>
	
		<linearGradient id="SVGID_31_" gradientUnits="userSpaceOnUse" x1="111.731" y1="96.5702" x2="147.4633" y2="96.5702" gradientTransform="matrix(0.9971 7.638922e-02 -7.638922e-02 0.9971 -20.4096 -13.1888)">
		<stop  offset="0" style="stop-color:#281464"/>
		<stop  offset="1" style="stop-color:#86278F"/>
	</linearGradient>
	
		<line style="fill:url(#SVGID_31_);stroke:#FFFFFF;stroke-linecap:round;stroke-linejoin:round;stroke-miterlimit:10;" x1="84.9" y1="74.8" x2="118" y2="111.2"/>
	
		<linearGradient id="SVGID_32_" gradientUnits="userSpaceOnUse" x1="111.731" y1="96.5702" x2="174.5039" y2="96.5702" gradientTransform="matrix(0.9971 7.638922e-02 -7.638922e-02 0.9971 -20.4096 -13.1888)">
		<stop  offset="0" style="stop-color:#281464"/>
		<stop  offset="1" style="stop-color:#86278F"/>
	</linearGradient>
	
		<line style="fill:url(#SVGID_32_);stroke:#FFFFFF;stroke-linecap:round;stroke-linejoin:round;stroke-miterlimit:10;" x1="144.9" y1="113.3" x2="84.9" y2="74.8"/>
	
		<linearGradient id="SVGID_33_" gradientUnits="userSpaceOnUse" x1="111.731" y1="83.5327" x2="164.8465" y2="83.5327" gradientTransform="matrix(0.9971 7.638922e-02 -7.638922e-02 0.9971 -20.4096 -13.1888)">
		<stop  offset="0" style="stop-color:#281464"/>
		<stop  offset="1" style="stop-color:#86278F"/>
	</linearGradient>
	
		<line style="fill:url(#SVGID_33_);stroke:#FFFFFF;stroke-linecap:round;stroke-linejoin:round;stroke-miterlimit:10;" x1="137.3" y1="86.5" x2="84.9" y2="74.8"/>
	
		<linearGradient id="SVGID_34_" gradientUnits="userSpaceOnUse" x1="141.6688" y1="76.7726" x2="164.8465" y2="76.7726" gradientTransform="matrix(0.9971 7.638922e-02 -7.638922e-02 0.9971 -20.4096 -13.1888)">
		<stop  offset="0" style="stop-color:#281464"/>
		<stop  offset="1" style="stop-color:#86278F"/>
	</linearGradient>
	
		<line style="fill:url(#SVGID_34_);stroke:#FFFFFF;stroke-linecap:round;stroke-linejoin:round;stroke-miterlimit:10;" x1="115.8" y1="63.6" x2="137.3" y2="86.5"/>
	
		<linearGradient id="SVGID_35_" gradientUnits="userSpaceOnUse" x1="164.8465" y1="78.2212" x2="187.0585" y2="78.2212" gradientTransform="matrix(0.9971 7.638922e-02 -7.638922e-02 0.9971 -20.4096 -13.1888)">
		<stop  offset="0" style="stop-color:#281464"/>
		<stop  offset="1" style="stop-color:#86278F"/>
	</linearGradient>
	
		<line style="fill:url(#SVGID_35_);stroke:#FFFFFF;stroke-linecap:round;stroke-linejoin:round;stroke-miterlimit:10;" x1="160.8" y1="69.9" x2="137.3" y2="86.5"/>
	
		<linearGradient id="SVGID_36_" gradientUnits="userSpaceOnUse" x1="164.8465" y1="100.4331" x2="174.5039" y2="100.4331" gradientTransform="matrix(0.9971 7.638922e-02 -7.638922e-02 0.9971 -20.4096 -13.1888)">
		<stop  offset="0" style="stop-color:#281464"/>
		<stop  offset="1" style="stop-color:#86278F"/>
	</linearGradient>
	
		<line style="fill:url(#SVGID_36_);stroke:#FFFFFF;stroke-linecap:round;stroke-linejoin:round;stroke-miterlimit:10;" x1="144.9" y1="113.3" x2="137.3" y2="86.5"/>
	
		<linearGradient id="SVGID_37_" gradientUnits="userSpaceOnUse" x1="164.8465" y1="95.1216" x2="217.9621" y2="95.1216" gradientTransform="matrix(0.9971 7.638922e-02 -7.638922e-02 0.9971 -20.4096 -13.1888)">
		<stop  offset="0" style="stop-color:#281464"/>
		<stop  offset="1" style="stop-color:#86278F"/>
	</linearGradient>
	
		<line style="fill:url(#SVGID_37_);stroke:#FFFFFF;stroke-linecap:round;stroke-linejoin:round;stroke-miterlimit:10;" x1="189.1" y1="106" x2="137.3" y2="86.5"/>
	
		<linearGradient id="SVGID_38_" gradientUnits="userSpaceOnUse" x1="174.5039" y1="108.159" x2="217.9621" y2="108.159" gradientTransform="matrix(0.9971 7.638922e-02 -7.638922e-02 0.9971 -20.4096 -13.1888)">
		<stop  offset="0" style="stop-color:#281464"/>
		<stop  offset="1" style="stop-color:#86278F"/>
	</linearGradient>
	
		<line style="fill:url(#SVGID_38_);stroke:#FFFFFF;stroke-linecap:round;stroke-linejoin:round;stroke-miterlimit:10;" x1="144.9" y1="113.3" x2="189.1" y2="106"/>
	
		<linearGradient id="SVGID_39_" gradientUnits="userSpaceOnUse" x1="174.5039" y1="135.1997" x2="230.5167" y2="135.1997" gradientTransform="matrix(0.9971 7.638922e-02 -7.638922e-02 0.9971 -20.4096 -13.1888)">
		<stop  offset="0" style="stop-color:#281464"/>
		<stop  offset="1" style="stop-color:#86278F"/>
	</linearGradient>
	
		<line style="fill:url(#SVGID_39_);stroke:#FFFFFF;stroke-linecap:round;stroke-linejoin:round;stroke-miterlimit:10;" x1="197.4" y1="160.9" x2="144.9" y2="113.3"/>
	
		<linearGradient id="SVGID_40_" gradientUnits="userSpaceOnUse" x1="216.0306" y1="167.069" x2="230.5167" y2="167.069" gradientTransform="matrix(0.9971 7.638922e-02 -7.638922e-02 0.9971 -20.4096 -13.1888)">
		<stop  offset="0" style="stop-color:#281464"/>
		<stop  offset="1" style="stop-color:#86278F"/>
	</linearGradient>
	
		<line style="fill:url(#SVGID_40_);stroke:#FFFFFF;stroke-linecap:round;stroke-linejoin:round;stroke-miterlimit:10;" x1="181.5" y1="180" x2="197.4" y2="160.9"/>
	
		<linearGradient id="SVGID_41_" gradientUnits="userSpaceOnUse" x1="217.9621" y1="129.8881" x2="230.5167" y2="129.8881" gradientTransform="matrix(0.9971 7.638922e-02 -7.638922e-02 0.9971 -20.4096 -13.1888)">
		<stop  offset="0" style="stop-color:#281464"/>
		<stop  offset="1" style="stop-color:#86278F"/>
	</linearGradient>
	
		<line style="fill:url(#SVGID_41_);stroke:#FFFFFF;stroke-linecap:round;stroke-linejoin:round;stroke-miterlimit:10;" x1="189.1" y1="106" x2="197.4" y2="160.9"/>
	
		<linearGradient id="SVGID_42_" gradientUnits="userSpaceOnUse" x1="263.3517" y1="124.0937" x2="264.3175" y2="124.0937" gradientTransform="matrix(0.9971 7.638922e-02 -7.638922e-02 0.9971 -20.4096 -13.1888)">
		<stop  offset="0" style="stop-color:#281464"/>
		<stop  offset="1" style="stop-color:#86278F"/>
	</linearGradient>
	
		<line style="fill:url(#SVGID_42_);stroke:#FFFFFF;stroke-linecap:round;stroke-linejoin:round;stroke-miterlimit:10;" x1="234.2" y1="110.4" x2="232.1" y2="151"/>
	
		<linearGradient id="SVGID_43_" gradientUnits="userSpaceOnUse" x1="230.5167" y1="130.371" x2="263.3517" y2="130.371" gradientTransform="matrix(0.9971 7.638922e-02 -7.638922e-02 0.9971 -20.4096 -13.1888)">
		<stop  offset="0" style="stop-color:#281464"/>
		<stop  offset="1" style="stop-color:#86278F"/>
	</linearGradient>
	
		<line style="fill:url(#SVGID_43_);stroke:#FFFFFF;stroke-linecap:round;stroke-linejoin:round;stroke-miterlimit:10;" x1="197.4" y1="160.9" x2="234.2" y2="110.4"/>
	
		<linearGradient id="SVGID_44_" gradientUnits="userSpaceOnUse" x1="217.9621" y1="84.0156" x2="263.3517" y2="84.0156" gradientTransform="matrix(0.9971 7.638922e-02 -7.638922e-02 0.9971 -20.4096 -13.1888)">
		<stop  offset="0" style="stop-color:#281464"/>
		<stop  offset="1" style="stop-color:#86278F"/>
	</linearGradient>
	
		<line style="fill:url(#SVGID_44_);stroke:#FFFFFF;stroke-linecap:round;stroke-linejoin:round;stroke-miterlimit:10;" x1="192" y1="67.5" x2="234.2" y2="110.4"/>
	
		<linearGradient id="SVGID_45_" gradientUnits="userSpaceOnUse" x1="263.3517" y1="88.3614" x2="285.5637" y2="88.3614" gradientTransform="matrix(0.9971 7.638922e-02 -7.638922e-02 0.9971 -20.4096 -13.1888)">
		<stop  offset="0" style="stop-color:#281464"/>
		<stop  offset="1" style="stop-color:#86278F"/>
	</linearGradient>
	
		<line style="fill:url(#SVGID_45_);stroke:#FFFFFF;stroke-linecap:round;stroke-linejoin:round;stroke-miterlimit:10;" x1="258.8" y1="81.3" x2="234.2" y2="110.4"/>
	
		<linearGradient id="SVGID_46_" gradientUnits="userSpaceOnUse" x1="248.8657" y1="10.6196" x2="270.1119" y2="10.6196" gradientTransform="matrix(0.9971 7.638922e-02 -7.638922e-02 0.9971 -20.4096 -13.1888)">
		<stop  offset="0" style="stop-color:#281464"/>
		<stop  offset="1" style="stop-color:#86278F"/>
	</linearGradient>
	
		<line style="fill:url(#SVGID_46_);stroke:#FFFFFF;stroke-linecap:round;stroke-linejoin:round;stroke-miterlimit:10;" x1="249.2" y1="4.1" x2="225.8" y2="30.4"/>
	
		<linearGradient id="SVGID_47_" gradientUnits="userSpaceOnUse" x1="217.9621" y1="44.4204" x2="248.8657" y2="44.4204" gradientTransform="matrix(0.9971 7.638922e-02 -7.638922e-02 0.9971 -20.4096 -13.1888)">
		<stop  offset="0" style="stop-color:#281464"/>
		<stop  offset="1" style="stop-color:#86278F"/>
	</linearGradient>
	
		<line style="fill:url(#SVGID_47_);stroke:#FFFFFF;stroke-linecap:round;stroke-linejoin:round;stroke-miterlimit:10;" x1="192" y1="67.5" x2="225.8" y2="30.4"/>
	
		<linearGradient id="SVGID_48_" gradientUnits="userSpaceOnUse" x1="248.8657" y1="48.7662" x2="285.5637" y2="48.7662" gradientTransform="matrix(0.9971 7.638922e-02 -7.638922e-02 0.9971 -20.4096 -13.1888)">
		<stop  offset="0" style="stop-color:#281464"/>
		<stop  offset="1" style="stop-color:#86278F"/>
	</linearGradient>
	
		<line style="fill:url(#SVGID_48_);stroke:#FFFFFF;stroke-linecap:round;stroke-linejoin:round;stroke-miterlimit:10;" x1="258.8" y1="81.3" x2="225.8" y2="30.4"/>
	
		<linearGradient id="SVGID_49_" gradientUnits="userSpaceOnUse" x1="285.5637" y1="34.763" x2="307.7756" y2="34.763" gradientTransform="matrix(0.9971 7.638922e-02 -7.638922e-02 0.9971 -20.4096 -13.1888)">
		<stop  offset="0" style="stop-color:#281464"/>
		<stop  offset="1" style="stop-color:#86278F"/>
	</linearGradient>
	
		<line style="fill:url(#SVGID_49_);stroke:#FFFFFF;stroke-linecap:round;stroke-linejoin:round;stroke-miterlimit:10;" x1="286.7" y1="6.9" x2="258.8" y2="81.3"/>
	
		<linearGradient id="SVGID_50_" gradientUnits="userSpaceOnUse" x1="64.4099" y1="60.355" x2="93.382" y2="60.355" gradientTransform="matrix(0.9971 7.638922e-02 -7.638922e-02 0.9971 -20.4096 -13.1888)">
		<stop  offset="0" style="stop-color:#281464"/>
		<stop  offset="1" style="stop-color:#86278F"/>
	</linearGradient>
	
		<line style="fill:url(#SVGID_50_);stroke:#FFFFFF;stroke-linecap:round;stroke-linejoin:round;stroke-miterlimit:10;" x1="39.8" y1="44.2" x2="67.5" y2="61.8"/>
</g>
<g id="points">
	<g>
		<g>
			<path style="fill:#FFFFFF;" d="M24.2,36.3c3.9,0,3.9-6,0-6C20.3,30.3,20.3,36.3,24.2,36.3L24.2,36.3z"/>
		</g>
	</g>
	<g>
		<g>
			<path style="fill:#FFFFFF;" d="M40.8,29.5c3.9,0,3.9-6,0-6C37,23.5,37,29.5,40.8,29.5L40.8,29.5z"/>
		</g>
	</g>
	<g>
		<g>
			<path style="fill:#FFFFFF;" d="M67.5,65.1c3.9,0,3.9-6,0-6C63.6,59.1,63.6,65.1,67.5,65.1L67.5,65.1z"/>
		</g>
	</g>
	<g>
		<g>
			<path style="fill:#FFFFFF;" d="M39.3,46.8c3.9,0,3.9-6,0-6C35.5,40.8,35.5,46.8,39.3,46.8L39.3,46.8z"/>
		</g>
	</g>
	<g>
		<g>
			<path style="fill:#FFFFFF;" d="M42.4,63.9c3.9,0,3.9-6,0-6C38.5,57.9,38.5,63.9,42.4,63.9L42.4,63.9z"/>
		</g>
	</g>
	<g>
		<g>
			<path style="fill:#FFFFFF;" d="M21.9,80.7c3.9,0,3.9-6,0-6C18,74.7,18,80.7,21.9,80.7L21.9,80.7z"/>
		</g>
	</g>
	<g>
		<g>
			<path style="fill:#FFFFFF;" d="M12.2,95.8c3.9,0,3.9-6,0-6C8.3,89.8,8.3,95.8,12.2,95.8L12.2,95.8z"/>
		</g>
	</g>
	<g>
		<g>
			<path style="fill:#FFFFFF;" d="M10.2,117.4c3.9,0,3.9-6,0-6C6.3,111.4,6.3,117.4,10.2,117.4L10.2,117.4z"/>
		</g>
	</g>
	<g>
		<g>
			<path style="fill:#FFFFFF;" d="M5.2,121.1c3.9,0,3.9-6,0-6C1.4,115.1,1.4,121.1,5.2,121.1L5.2,121.1z"/>
		</g>
	</g>
	<g>
		<g>
			<path style="fill:#FFFFFF;" d="M13.5,126.4c3.9,0,3.9-6,0-6C9.7,120.4,9.7,126.4,13.5,126.4L13.5,126.4z"/>
		</g>
	</g>
	<g>
		<g>
			<path style="fill:#FFFFFF;" d="M27.6,127.8c3.9,0,3.9-6,0-6C23.8,121.8,23.8,127.8,27.6,127.8L27.6,127.8z"/>
		</g>
	</g>
	<g>
		<g>
			<path style="fill:#FFFFFF;" d="M29.1,108.2c3.9,0,3.9-6,0-6C25.3,102.2,25.3,108.2,29.1,108.2L29.1,108.2z"/>
		</g>
	</g>
	<g>
		<g>
			<path style="fill:#FFFFFF;" d="M68.6,84.6c3.9,0,3.9-6,0-6C64.7,78.6,64.7,84.6,68.6,84.6L68.6,84.6z"/>
		</g>
	</g>
	<g>
		<g>
			<path style="fill:#FFFFFF;" d="M85.3,78.5c3.9,0,3.9-6,0-6C81.5,72.5,81.5,78.5,85.3,78.5L85.3,78.5z"/>
		</g>
	</g>
	<g>
		<g>
			<path style="fill:#FFFFFF;" d="M115.5,66.4c3.9,0,3.9-6,0-6C111.6,60.4,111.6,66.4,115.5,66.4L115.5,66.4z"/>
		</g>
	</g>
	<g>
		<g>
			<path style="fill:#FFFFFF;" d="M161,72.8c3.9,0,3.9-6,0-6C157.1,66.8,157.1,72.8,161,72.8L161,72.8z"/>
		</g>
	</g>
	<g>
		<g>
			<path style="fill:#FFFFFF;" d="M137.6,89.2c3.9,0,3.9-6,0-6C133.8,83.2,133.8,89.2,137.6,89.2L137.6,89.2z"/>
		</g>
	</g>
	<g>
		<g>
			<path style="fill:#FFFFFF;" d="M117.6,114.7c3.9,0,3.9-6,0-6C113.7,108.7,113.7,114.7,117.6,114.7L117.6,114.7z"/>
		</g>
	</g>
	<g>
		<g>
			<path style="fill:#FFFFFF;" d="M145.1,116.5c3.9,0,3.9-6,0-6C141.2,110.5,141.2,116.5,145.1,116.5L145.1,116.5z"/>
		</g>
	</g>
	<g>
		<g>
			<path style="fill:#FFFFFF;" d="M101.5,133.1c3.9,0,3.9-6,0-6C97.6,127.1,97.6,133.1,101.5,133.1L101.5,133.1z"/>
		</g>
	</g>
	<g>
		<g>
			<path style="fill:#FFFFFF;" d="M103.5,141.2c3.9,0,3.9-6,0-6C99.6,135.2,99.6,141.2,103.5,141.2L103.5,141.2z"/>
		</g>
	</g>
	<g>
		<g>
			<path style="fill:#FFFFFF;" d="M93.4,145.6c3.9,0,3.9-6,0-6C89.6,139.6,89.6,145.6,93.4,145.6L93.4,145.6z"/>
		</g>
	</g>
	<g>
		<g>
			<path style="fill:#FFFFFF;" d="M54.1,121.8c3.9,0,3.9-6,0-6C50.2,115.8,50.2,121.8,54.1,121.8L54.1,121.8z"/>
		</g>
	</g>
	<g>
		<g>
			<path style="fill:#FFFFFF;" d="M19,156c3.9,0,3.9-6,0-6C15.2,150,15.2,156,19,156L19,156z"/>
		</g>
	</g>
	<g>
		<g>
			<path style="fill:#FFFFFF;" d="M28.8,146.9c3.9,0,3.9-6,0-6C24.9,140.9,24.9,146.9,28.8,146.9L28.8,146.9z"/>
		</g>
	</g>
	<g>
		<g>
			<path style="fill:#FFFFFF;" d="M32.3,163.3c3.9,0,3.9-6,0-6C28.5,157.3,28.5,163.3,32.3,163.3L32.3,163.3z"/>
		</g>
	</g>
	<g>
		<g>
			<path style="fill:#FFFFFF;" d="M43,150.3c3.9,0,3.9-6,0-6C39.2,144.3,39.2,150.3,43,150.3L43,150.3z"/>
		</g>
	</g>
	<g>
		<g>
			<path style="fill:#FFFFFF;" d="M67.2,150.7c3.9,0,3.9-6,0-6C63.4,144.7,63.3,150.7,67.2,150.7L67.2,150.7z"/>
		</g>
	</g>
	<g>
		<g>
			<path style="fill:#FFFFFF;" d="M65.7,176.4c3.9,0,3.9-6,0-6C61.9,170.4,61.9,176.4,65.7,176.4L65.7,176.4z"/>
		</g>
	</g>
	<g>
		<g>
			<path style="fill:#FFFFFF;" d="M101.5,166.5c3.9,0,3.9-6,0-6C97.7,160.5,97.6,166.5,101.5,166.5L101.5,166.5z"/>
		</g>
	</g>
	<g>
		<g>
			<path style="fill:#FFFFFF;" d="M85.3,190.3c3.9,0,3.9-6,0-6C81.5,184.3,81.5,190.3,85.3,190.3L85.3,190.3z"/>
		</g>
	</g>
	<g>
		<g>
			<path style="fill:#FFFFFF;" d="M82,200.6c3.9,0,3.9-6,0-6C78.1,194.6,78.1,200.6,82,200.6L82,200.6z"/>
		</g>
	</g>
	<g>
		<g>
			<path style="fill:#FFFFFF;" d="M119.4,194.9c3.9,0,3.9-6,0-6C115.5,188.9,115.5,194.9,119.4,194.9L119.4,194.9z"/>
		</g>
	</g>
	<g>
		<g>
			<path style="fill:#FFFFFF;" d="M146.2,206.8c3.9,0,3.9-6,0-6C142.4,200.8,142.3,206.8,146.2,206.8L146.2,206.8z"/>
		</g>
	</g>
	<g>
		<g>
			<path style="fill:#FFFFFF;" d="M115.4,185.4c3.9,0,3.9-6,0-6C111.5,179.4,111.5,185.4,115.4,185.4L115.4,185.4z"/>
		</g>
	</g>
	<g>
		<g>
			<path style="fill:#FFFFFF;" d="M138.5,193.6c3.9,0,3.9-6,0-6C134.6,187.6,134.6,193.6,138.5,193.6L138.5,193.6z"/>
		</g>
	</g>
	<g>
		<g>
			<path style="fill:#FFFFFF;" d="M197,163.5c3.9,0,3.9-6,0-6C193.1,157.5,193.1,163.5,197,163.5L197,163.5z"/>
		</g>
	</g>
	<g>
		<g>
			<path style="fill:#FFFFFF;" d="M181.8,182.5c3.9,0,3.9-6,0-6C178,176.5,177.9,182.5,181.8,182.5L181.8,182.5z"/>
		</g>
	</g>
	<g>
		<g>
			<path style="fill:#FFFFFF;" d="M230.6,166.8c3.9,0,3.9-6,0-6C226.8,160.8,226.8,166.8,230.6,166.8L230.6,166.8z"/>
		</g>
	</g>
	<g>
		<g>
			<path style="fill:#FFFFFF;" d="M232.6,153.3c3.9,0,3.9-6,0-6C228.8,147.3,228.8,153.3,232.6,153.3L232.6,153.3z"/>
		</g>
	</g>
	<g>
		<g>
			<path style="fill:#FFFFFF;" d="M234.4,113.1c3.9,0,3.9-6,0-6C230.6,107.1,230.6,113.1,234.4,113.1L234.4,113.1z"/>
		</g>
	</g>
	<g>
		<g>
			<path style="fill:#FFFFFF;" d="M188.9,109c3.9,0,3.9-6,0-6C185,103,185,109,188.9,109L188.9,109z"/>
		</g>
	</g>
	<g>
		<g>
			<path style="fill:#FFFFFF;" d="M257.6,124.8c3.9,0,3.9-6,0-6C253.7,118.8,253.7,124.8,257.6,124.8L257.6,124.8z"/>
		</g>
	</g>
	<g>
		<g>
			<path style="fill:#FFFFFF;" d="M192.1,70.8c3.9,0,3.9-6,0-6C188.3,64.8,188.3,70.8,192.1,70.8L192.1,70.8z"/>
		</g>
	</g>
	<g>
		<g>
			<path style="fill:#FFFFFF;" d="M258.5,83.8c3.9,0,3.9-6,0-6C254.6,77.8,254.6,83.8,258.5,83.8L258.5,83.8z"/>
		</g>
	</g>
	<g>
		<g>
			<path style="fill:#FFFFFF;" d="M226.3,33.6c3.9,0,3.9-6,0-6C222.5,27.6,222.5,33.6,226.3,33.6L226.3,33.6z"/>
		</g>
	</g>
	<g>
		<g>
			<path style="fill:#FFFFFF;" d="M216.2,15.7c3.9,0,3.9-6,0-6C212.4,9.7,212.4,15.7,216.2,15.7L216.2,15.7z"/>
		</g>
	</g>
	<g>
		<g>
			<path style="fill:#FFFFFF;" d="M249.2,6.9c3.9,0,3.9-6,0-6C245.3,0.9,245.3,6.9,249.2,6.9L249.2,6.9z"/>
		</g>
	</g>
	<g>
		<g>
			<path style="fill:#FFFFFF;" d="M308.5,63.3c3.9,0,3.9-6,0-6C304.6,57.3,304.6,63.3,308.5,63.3L308.5,63.3z"/>
		</g>
	</g>
	<g>
		<g>
			<path style="fill:#FFFFFF;" d="M324,29.1c3.9,0,3.9-6,0-6C320.1,23.1,320.1,29.1,324,29.1L324,29.1z"/>
		</g>
	</g>
	<g>
		<g>
			<path style="fill:#FFFFFF;" d="M286.6,10.1c3.9,0,3.9-6,0-6C282.7,4.1,282.7,10.1,286.6,10.1L286.6,10.1z"/>
		</g>
	</g>
	<g>
		<g>
			<path style="fill:#FFFFFF;" d="M171.7,196.7c3.9,0,3.9-6,0-6C167.8,190.7,167.8,196.7,171.7,196.7L171.7,196.7z"/>
		</g>
	</g>
	<g>
		<g>
			<path style="fill:#FFFFFF;" d="M41.2,130.5c3.9,0,3.9-6,0-6C37.3,124.5,37.3,130.5,41.2,130.5L41.2,130.5z"/>
		</g>
	</g>
</g>
</svg>
