<svg xmlns="http://www.w3.org/2000/svg" viewBox="0 0 331 207"><linearGradient id="a" gradientUnits="userSpaceOnUse" x1="35.438" y1="99.95" x2="346.405" y2="99.95" gradientTransform="rotate(4.38 162.206 -273.385) scale(1.00002)"><stop offset="0" stop-color="#281464"/><stop offset="1" stop-color="#86278f"/></linearGradient><path fill="url(#a)" stroke="#fff" stroke-linecap="round" stroke-linejoin="round" stroke-miterlimit="10" d="M24.2 33.3l15.6 10.9 1.3-17.3 26.4 34.9 17.4 13 30.9-11.2 45 6.3 28.3 36.1 2.9-38.5 24.6-55.3 32.6-8.1 37.5 2.8L324 26.3 308.8 60l-50 21.3-1.2 40.6-25.5 29.1-1 12.5-49.6 16.5-9.8 13.8-32.8-2.5 6.9 12.1-63.5-5.8 2.7-10.5 34.5 4.6-4.1-9-14-19.5-10.2 7-25.4 2.9-34-12.3-12.9-7.8 10.3-8.9 14.3 3.1 24.2.8-13.3-29.1-13.2 8.7-13.4-3-14.4-1.1-8.3-5.4 5.1-3.5 1.7-22.2 9.8-14.7 20.7-16.8z"/><linearGradient id="b" gradientUnits="userSpaceOnUse" x1="40.266" y1="119.748" x2="58.615" y2="119.748" gradientTransform="rotate(4.38 162.206 -273.385) scale(1.00002)"><stop offset="0" stop-color="#281464"/><stop offset="1" stop-color="#86278f"/></linearGradient><path fill="url(#b)" stroke="#fff" stroke-linecap="round" stroke-linejoin="round" stroke-miterlimit="10" d="M10.2 114.6l19.1-9.2"/><linearGradient id="c" gradientUnits="userSpaceOnUse" x1="40.266" y1="129.405" x2="44.129" y2="129.405" gradientTransform="rotate(4.38 162.206 -273.385) scale(1.00002)"><stop offset="0" stop-color="#281464"/><stop offset="1" stop-color="#86278f"/></linearGradient><path fill="url(#c)" stroke="#fff" stroke-linecap="round" stroke-linejoin="round" stroke-miterlimit="10" d="M13.4 123.5l-3.2-8.9"/><linearGradient id="d" gradientUnits="userSpaceOnUse" x1="58.615" y1="124.094" x2="58.615" y2="124.094" gradientTransform="rotate(4.38 162.206 -273.385) scale(1.00002)"><stop offset="0" stop-color="#281464"/><stop offset="1" stop-color="#86278f"/></linearGradient><path fill="url(#d)" stroke="#fff" stroke-linecap="round" stroke-linejoin="round" stroke-miterlimit="10" d="M29.3 105.4l-1.5 19.2"/><linearGradient id="e" gradientUnits="userSpaceOnUse" x1="40.266" y1="108.642" x2="58.615" y2="108.642" gradientTransform="rotate(4.38 162.206 -273.385) scale(1.00002)"><stop offset="0" stop-color="#281464"/><stop offset="1" stop-color="#86278f"/></linearGradient><path fill="url(#e)" stroke="#fff" stroke-linecap="round" stroke-linejoin="round" stroke-miterlimit="10" d="M11.9 92.4l17.4 13"/><linearGradient id="f" gradientUnits="userSpaceOnUse" x1="58.615" y1="120.231" x2="84.69" y2="120.231" gradientTransform="rotate(4.38 162.206 -273.385) scale(1.00002)"><stop offset="0" stop-color="#281464"/><stop offset="1" stop-color="#86278f"/></linearGradient><path fill="url(#f)" stroke="#fff" stroke-linecap="round" stroke-linejoin="round" stroke-miterlimit="10" d="M54.4 118.9l-25.1-13.5"/><linearGradient id="g" gradientUnits="userSpaceOnUse" x1="58.615" y1="100.916" x2="96.279" y2="100.916" gradientTransform="rotate(4.38 162.206 -273.385) scale(1.00002)"><stop offset="0" stop-color="#281464"/><stop offset="1" stop-color="#86278f"/></linearGradient><path fill="url(#g)" stroke="#fff" stroke-linecap="round" stroke-linejoin="round" stroke-miterlimit="10" d="M68.9 81.3l-39.6 24.1"/><linearGradient id="h" gradientUnits="userSpaceOnUse" x1="48.958" y1="87.396" x2="96.279" y2="87.396" gradientTransform="rotate(4.38 162.206 -273.385) scale(1.00002)"><stop offset="0" stop-color="#281464"/><stop offset="1" stop-color="#86278f"/></linearGradient><path fill="url(#h)" stroke="#fff" stroke-linecap="round" stroke-linejoin="round" stroke-miterlimit="10" d="M68.9 81.3l-47.2-3.6"/><linearGradient id="i" gradientUnits="userSpaceOnUse" x1="48.958" y1="100.916" x2="58.615" y2="100.916" gradientTransform="rotate(4.38 162.206 -273.385) scale(1.00002)"><stop offset="0" stop-color="#281464"/><stop offset="1" stop-color="#86278f"/></linearGradient><path fill="url(#i)" stroke="#fff" stroke-linecap="round" stroke-linejoin="round" stroke-miterlimit="10" d="M21.7 77.7l7.6 27.7"/><linearGradient id="j" gradientUnits="userSpaceOnUse" x1="68.273" y1="78.221" x2="96.279" y2="78.221" gradientTransform="rotate(4.38 162.206 -273.385) scale(1.00002)"><stop offset="0" stop-color="#281464"/><stop offset="1" stop-color="#86278f"/></linearGradient><path fill="url(#j)" stroke="#fff" stroke-linecap="round" stroke-linejoin="round" stroke-miterlimit="10" d="M42.4 60.9l26.5 20.4"/><linearGradient id="k" gradientUnits="userSpaceOnUse" x1="68.273" y1="68.564" x2="93.382" y2="68.564" gradientTransform="rotate(4.38 162.206 -273.385) scale(1.00002)"><stop offset="0" stop-color="#281464"/><stop offset="1" stop-color="#86278f"/></linearGradient><path fill="url(#k)" stroke="#fff" stroke-linecap="round" stroke-linejoin="round" stroke-miterlimit="10" d="M67.5 61.8l-25.1-.9"/><linearGradient id="l" gradientUnits="userSpaceOnUse" x1="93.382" y1="77.738" x2="96.279" y2="77.738" gradientTransform="rotate(4.38 162.206 -273.385) scale(1.00002)"><stop offset="0" stop-color="#281464"/><stop offset="1" stop-color="#86278f"/></linearGradient><path fill="url(#l)" stroke="#fff" stroke-linecap="round" stroke-linejoin="round" stroke-miterlimit="10" d="M68.9 81.3l-1.4-19.5"/><linearGradient id="m" gradientUnits="userSpaceOnUse" x1="96.279" y1="83.533" x2="111.731" y2="83.533" gradientTransform="rotate(4.38 162.206 -273.385) scale(1.00002)"><stop offset="0" stop-color="#281464"/><stop offset="1" stop-color="#86278f"/></linearGradient><path fill="url(#m)" stroke="#fff" stroke-linecap="round" stroke-linejoin="round" stroke-miterlimit="10" d="M84.9 74.8l-16 6.5"/><linearGradient id="n" gradientUnits="userSpaceOnUse" x1="84.69" y1="106.71" x2="96.279" y2="106.71" gradientTransform="rotate(4.38 162.206 -273.385) scale(1.00002)"><stop offset="0" stop-color="#281464"/><stop offset="1" stop-color="#86278f"/></linearGradient><path fill="url(#n)" stroke="#fff" stroke-linecap="round" stroke-linejoin="round" stroke-miterlimit="10" d="M54.4 118.9l14.5-37.6"/><linearGradient id="o" gradientUnits="userSpaceOnUse" x1="84.69" y1="102.847" x2="111.731" y2="102.847" gradientTransform="rotate(4.38 162.206 -273.385) scale(1.00002)"><stop offset="0" stop-color="#281464"/><stop offset="1" stop-color="#86278f"/></linearGradient><path fill="url(#o)" stroke="#fff" stroke-linecap="round" stroke-linejoin="round" stroke-miterlimit="10" d="M84.9 74.8l-30.5 44.1"/><linearGradient id="p" gradientUnits="userSpaceOnUse" x1="84.69" y1="136.165" x2="125.251" y2="136.165" gradientTransform="rotate(4.38 162.206 -273.385) scale(1.00002)"><stop offset="0" stop-color="#281464"/><stop offset="1" stop-color="#86278f"/></linearGradient><path fill="url(#p)" stroke="#fff" stroke-linecap="round" stroke-linejoin="round" stroke-miterlimit="10" d="M93.3 142.3l-38.9-23.4"/><linearGradient id="q" gradientUnits="userSpaceOnUse" x1="100.142" y1="150.169" x2="125.251" y2="150.169" gradientTransform="rotate(4.38 162.206 -273.385) scale(1.00002)"><stop offset="0" stop-color="#281464"/><stop offset="1" stop-color="#86278f"/></linearGradient><path fill="url(#q)" stroke="#fff" stroke-linecap="round" stroke-linejoin="round" stroke-miterlimit="10" d="M67.7 148l25.6-5.7"/><linearGradient id="r" gradientUnits="userSpaceOnUse" x1="100.142" y1="166.586" x2="100.142" y2="166.586" gradientTransform="rotate(4.38 162.206 -273.385) scale(1.00002)"><stop offset="0" stop-color="#281464"/><stop offset="1" stop-color="#86278f"/></linearGradient><path fill="url(#r)" stroke="#fff" stroke-linecap="round" stroke-linejoin="round" stroke-miterlimit="10" d="M65.8 173.1l1.9-25.1"/><linearGradient id="s" gradientUnits="userSpaceOnUse" x1="65.376" y1="162.24" x2="75.999" y2="162.24" gradientTransform="rotate(4.38 162.206 -273.385) scale(1.00002)"><stop offset="0" stop-color="#281464"/><stop offset="1" stop-color="#86278f"/></linearGradient><path fill="url(#s)" stroke="#fff" stroke-linecap="round" stroke-linejoin="round" stroke-miterlimit="10" d="M43.5 147.2l-11.7 13.6"/><linearGradient id="t" gradientUnits="userSpaceOnUse" x1="125.251" y1="140.028" x2="132.977" y2="140.028" gradientTransform="rotate(4.38 162.206 -273.385) scale(1.00002)"><stop offset="0" stop-color="#281464"/><stop offset="1" stop-color="#86278f"/></linearGradient><path fill="url(#t)" stroke="#fff" stroke-linecap="round" stroke-linejoin="round" stroke-miterlimit="10" d="M102 130.3l-8.7 12"/><linearGradient id="u" gradientUnits="userSpaceOnUse" x1="111.731" y1="106.71" x2="132.977" y2="106.71" gradientTransform="rotate(4.38 162.206 -273.385) scale(1.00002)"><stop offset="0" stop-color="#281464"/><stop offset="1" stop-color="#86278f"/></linearGradient><path fill="url(#u)" stroke="#fff" stroke-linecap="round" stroke-linejoin="round" stroke-miterlimit="10" d="M84.9 74.8l17.1 55.5"/><linearGradient id="v" gradientUnits="userSpaceOnUse" x1="134.909" y1="127.474" x2="147.463" y2="127.474" gradientTransform="rotate(4.38 162.206 -273.385) scale(1.00002)"><stop offset="0" stop-color="#281464"/><stop offset="1" stop-color="#86278f"/></linearGradient><path fill="url(#v)" stroke="#fff" stroke-linecap="round" stroke-linejoin="round" stroke-miterlimit="10" d="M118 111.2l-14.7 27"/><linearGradient id="w" gradientUnits="userSpaceOnUse" x1="132.977" y1="137.614" x2="134.909" y2="137.614" gradientTransform="rotate(4.38 162.206 -273.385) scale(1.00002)"><stop offset="0" stop-color="#281464"/><stop offset="1" stop-color="#86278f"/></linearGradient><path fill="url(#w)" stroke="#fff" stroke-linecap="round" stroke-linejoin="round" stroke-miterlimit="10" d="M102 130.3l1.3 7.9"/><linearGradient id="x" gradientUnits="userSpaceOnUse" x1="125.251" y1="156.446" x2="134.909" y2="156.446" gradientTransform="rotate(4.38 162.206 -273.385) scale(1.00002)"><stop offset="0" stop-color="#281464"/><stop offset="1" stop-color="#86278f"/></linearGradient><path fill="url(#x)" stroke="#fff" stroke-linecap="round" stroke-linejoin="round" stroke-miterlimit="10" d="M93.3 142.3l8.1 20.9"/><linearGradient id="y" gradientUnits="userSpaceOnUse" x1="134.909" y1="154.032" x2="134.909" y2="154.032" gradientTransform="rotate(4.38 162.206 -273.385) scale(1.00002)"><stop offset="0" stop-color="#281464"/><stop offset="1" stop-color="#86278f"/></linearGradient><path fill="url(#y)" stroke="#fff" stroke-linecap="round" stroke-linejoin="round" stroke-miterlimit="10" d="M103.3 138.2l-1.9 25"/><linearGradient id="z" gradientUnits="userSpaceOnUse" x1="150.361" y1="188.315" x2="174.504" y2="188.315" gradientTransform="rotate(4.38 162.206 -273.385) scale(1.00002)"><stop offset="0" stop-color="#281464"/><stop offset="1" stop-color="#86278f"/></linearGradient><path fill="url(#z)" stroke="#fff" stroke-linecap="round" stroke-linejoin="round" stroke-miterlimit="10" d="M138.9 191.3l-23.5-8.6"/><linearGradient id="A" gradientUnits="userSpaceOnUse" x1="155.189" y1="198.456" x2="182.23" y2="198.456" gradientTransform="rotate(4.38 162.206 -273.385) scale(1.00002)"><stop offset="0" stop-color="#281464"/><stop offset="1" stop-color="#86278f"/></linearGradient><path fill="url(#A)" stroke="#fff" stroke-linecap="round" stroke-linejoin="round" stroke-miterlimit="10" d="M145.8 203.4l-26.3-11.7"/><linearGradient id="B" gradientUnits="userSpaceOnUse" x1="174.504" y1="152.583" x2="174.504" y2="152.583" gradientTransform="rotate(4.38 162.206 -273.385) scale(1.00002)"><stop offset="0" stop-color="#281464"/><stop offset="1" stop-color="#86278f"/></linearGradient><path fill="url(#B)" stroke="#fff" stroke-linecap="round" stroke-linejoin="round" stroke-miterlimit="10" d="M144.9 113.3l-6 78"/><linearGradient id="C" gradientUnits="userSpaceOnUse" x1="134.909" y1="166.586" x2="174.504" y2="166.586" gradientTransform="rotate(4.38 162.206 -273.385) scale(1.00002)"><stop offset="0" stop-color="#281464"/><stop offset="1" stop-color="#86278f"/></linearGradient><path fill="url(#C)" stroke="#fff" stroke-linecap="round" stroke-linejoin="round" stroke-miterlimit="10" d="M103.3 138.2l35.6 53.1"/><linearGradient id="D" gradientUnits="userSpaceOnUse" x1="147.463" y1="113.471" x2="174.504" y2="113.471" gradientTransform="rotate(4.38 162.206 -273.385) scale(1.00002)"><stop offset="0" stop-color="#281464"/><stop offset="1" stop-color="#86278f"/></linearGradient><path fill="url(#D)" stroke="#fff" stroke-linecap="round" stroke-linejoin="round" stroke-miterlimit="10" d="M118 111.2l26.9 2.1"/><linearGradient id="E" gradientUnits="userSpaceOnUse" x1="111.731" y1="96.57" x2="147.463" y2="96.57" gradientTransform="rotate(4.38 162.206 -273.385) scale(1.00002)"><stop offset="0" stop-color="#281464"/><stop offset="1" stop-color="#86278f"/></linearGradient><path fill="url(#E)" stroke="#fff" stroke-linecap="round" stroke-linejoin="round" stroke-miterlimit="10" d="M84.9 74.8l33.1 36.4"/><linearGradient id="F" gradientUnits="userSpaceOnUse" x1="111.731" y1="96.57" x2="174.504" y2="96.57" gradientTransform="rotate(4.38 162.206 -273.385) scale(1.00002)"><stop offset="0" stop-color="#281464"/><stop offset="1" stop-color="#86278f"/></linearGradient><path fill="url(#F)" stroke="#fff" stroke-linecap="round" stroke-linejoin="round" stroke-miterlimit="10" d="M144.9 113.3l-60-38.5"/><linearGradient id="G" gradientUnits="userSpaceOnUse" x1="111.731" y1="83.533" x2="164.846" y2="83.533" gradientTransform="rotate(4.38 162.206 -273.385) scale(1.00002)"><stop offset="0" stop-color="#281464"/><stop offset="1" stop-color="#86278f"/></linearGradient><path fill="url(#G)" stroke="#fff" stroke-linecap="round" stroke-linejoin="round" stroke-miterlimit="10" d="M137.3 86.5L84.9 74.8"/><linearGradient id="H" gradientUnits="userSpaceOnUse" x1="141.669" y1="76.773" x2="164.846" y2="76.773" gradientTransform="rotate(4.38 162.206 -273.385) scale(1.00002)"><stop offset="0" stop-color="#281464"/><stop offset="1" stop-color="#86278f"/></linearGradient><path fill="url(#H)" stroke="#fff" stroke-linecap="round" stroke-linejoin="round" stroke-miterlimit="10" d="M115.8 63.6l21.5 22.9"/><linearGradient id="I" gradientUnits="userSpaceOnUse" x1="164.846" y1="78.221" x2="187.059" y2="78.221" gradientTransform="rotate(4.38 162.206 -273.385) scale(1.00002)"><stop offset="0" stop-color="#281464"/><stop offset="1" stop-color="#86278f"/></linearGradient><path fill="url(#I)" stroke="#fff" stroke-linecap="round" stroke-linejoin="round" stroke-miterlimit="10" d="M160.8 69.9l-23.5 16.6"/><linearGradient id="J" gradientUnits="userSpaceOnUse" x1="164.846" y1="100.433" x2="174.504" y2="100.433" gradientTransform="rotate(4.38 162.206 -273.385) scale(1.00002)"><stop offset="0" stop-color="#281464"/><stop offset="1" stop-color="#86278f"/></linearGradient><path fill="url(#J)" stroke="#fff" stroke-linecap="round" stroke-linejoin="round" stroke-miterlimit="10" d="M144.9 113.3l-7.6-26.8"/><linearGradient id="K" gradientUnits="userSpaceOnUse" x1="164.846" y1="95.122" x2="217.962" y2="95.122" gradientTransform="rotate(4.38 162.206 -273.385) scale(1.00002)"><stop offset="0" stop-color="#281464"/><stop offset="1" stop-color="#86278f"/></linearGradient><path fill="url(#K)" stroke="#fff" stroke-linecap="round" stroke-linejoin="round" stroke-miterlimit="10" d="M189.1 106l-51.8-19.5"/><linearGradient id="L" gradientUnits="userSpaceOnUse" x1="174.504" y1="108.159" x2="217.962" y2="108.159" gradientTransform="rotate(4.38 162.206 -273.385) scale(1.00002)"><stop offset="0" stop-color="#281464"/><stop offset="1" stop-color="#86278f"/></linearGradient><path fill="url(#L)" stroke="#fff" stroke-linecap="round" stroke-linejoin="round" stroke-miterlimit="10" d="M144.9 113.3l44.2-7.3"/><linearGradient id="M" gradientUnits="userSpaceOnUse" x1="174.504" y1="135.2" x2="230.517" y2="135.2" gradientTransform="rotate(4.38 162.206 -273.385) scale(1.00002)"><stop offset="0" stop-color="#281464"/><stop offset="1" stop-color="#86278f"/></linearGradient><path fill="url(#M)" stroke="#fff" stroke-linecap="round" stroke-linejoin="round" stroke-miterlimit="10" d="M197.4 160.9l-52.5-47.6"/><linearGradient id="N" gradientUnits="userSpaceOnUse" x1="216.031" y1="167.069" x2="230.517" y2="167.069" gradientTransform="rotate(4.38 162.206 -273.385) scale(1.00002)"><stop offset="0" stop-color="#281464"/><stop offset="1" stop-color="#86278f"/></linearGradient><path fill="url(#N)" stroke="#fff" stroke-linecap="round" stroke-linejoin="round" stroke-miterlimit="10" d="M181.5 180l15.9-19.1"/><linearGradient id="O" gradientUnits="userSpaceOnUse" x1="217.962" y1="129.888" x2="230.517" y2="129.888" gradientTransform="rotate(4.38 162.206 -273.385) scale(1.00002)"><stop offset="0" stop-color="#281464"/><stop offset="1" stop-color="#86278f"/></linearGradient><path fill="url(#O)" stroke="#fff" stroke-linecap="round" stroke-linejoin="round" stroke-miterlimit="10" d="M189.1 106l8.3 54.9"/><linearGradient id="P" gradientUnits="userSpaceOnUse" x1="263.352" y1="124.094" x2="264.317" y2="124.094" gradientTransform="rotate(4.38 162.206 -273.385) scale(1.00002)"><stop offset="0" stop-color="#281464"/><stop offset="1" stop-color="#86278f"/></linearGradient><path fill="url(#P)" stroke="#fff" stroke-linecap="round" stroke-linejoin="round" stroke-miterlimit="10" d="M234.2 110.4l-2.1 40.6"/><linearGradient id="Q" gradientUnits="userSpaceOnUse" x1="230.517" y1="130.371" x2="263.352" y2="130.371" gradientTransform="rotate(4.38 162.206 -273.385) scale(1.00002)"><stop offset="0" stop-color="#281464"/><stop offset="1" stop-color="#86278f"/></linearGradient><path fill="url(#Q)" stroke="#fff" stroke-linecap="round" stroke-linejoin="round" stroke-miterlimit="10" d="M197.4 160.9l36.8-50.5"/><linearGradient id="R" gradientUnits="userSpaceOnUse" x1="217.962" y1="84.016" x2="263.352" y2="84.016" gradientTransform="rotate(4.38 162.206 -273.385) scale(1.00002)"><stop offset="0" stop-color="#281464"/><stop offset="1" stop-color="#86278f"/></linearGradient><path fill="url(#R)" stroke="#fff" stroke-linecap="round" stroke-linejoin="round" stroke-miterlimit="10" d="M192 67.5l42.2 42.9"/><linearGradient id="S" gradientUnits="userSpaceOnUse" x1="263.352" y1="88.361" x2="285.564" y2="88.361" gradientTransform="rotate(4.38 162.206 -273.385) scale(1.00002)"><stop offset="0" stop-color="#281464"/><stop offset="1" stop-color="#86278f"/></linearGradient><path fill="url(#S)" stroke="#fff" stroke-linecap="round" stroke-linejoin="round" stroke-miterlimit="10" d="M258.8 81.3l-24.6 29.1"/><linearGradient id="T" gradientUnits="userSpaceOnUse" x1="248.866" y1="10.62" x2="270.112" y2="10.62" gradientTransform="rotate(4.38 162.206 -273.385) scale(1.00002)"><stop offset="0" stop-color="#281464"/><stop offset="1" stop-color="#86278f"/></linearGradient><path fill="url(#T)" stroke="#fff" stroke-linecap="round" stroke-linejoin="round" stroke-miterlimit="10" d="M249.2 4.1l-23.4 26.3"/><linearGradient id="U" gradientUnits="userSpaceOnUse" x1="217.962" y1="44.42" x2="248.866" y2="44.42" gradientTransform="rotate(4.38 162.206 -273.385) scale(1.00002)"><stop offset="0" stop-color="#281464"/><stop offset="1" stop-color="#86278f"/></linearGradient><path fill="url(#U)" stroke="#fff" stroke-linecap="round" stroke-linejoin="round" stroke-miterlimit="10" d="M192 67.5l33.8-37.1"/><linearGradient id="V" gradientUnits="userSpaceOnUse" x1="248.866" y1="48.766" x2="285.564" y2="48.766" gradientTransform="rotate(4.38 162.206 -273.385) scale(1.00002)"><stop offset="0" stop-color="#281464"/><stop offset="1" stop-color="#86278f"/></linearGradient><path fill="url(#V)" stroke="#fff" stroke-linecap="round" stroke-linejoin="round" stroke-miterlimit="10" d="M258.8 81.3l-33-50.9"/><linearGradient id="W" gradientUnits="userSpaceOnUse" x1="285.564" y1="34.763" x2="307.776" y2="34.763" gradientTransform="rotate(4.38 162.206 -273.385) scale(1.00002)"><stop offset="0" stop-color="#281464"/><stop offset="1" stop-color="#86278f"/></linearGradient><path fill="url(#W)" stroke="#fff" stroke-linecap="round" stroke-linejoin="round" stroke-miterlimit="10" d="M286.7 6.9l-27.9 74.4"/><linearGradient id="X" gradientUnits="userSpaceOnUse" x1="64.41" y1="60.355" x2="93.382" y2="60.355" gradientTransform="rotate(4.38 162.206 -273.385) scale(1.00002)"><stop offset="0" stop-color="#281464"/><stop offset="1" stop-color="#86278f"/></linearGradient><path fill="url(#X)" stroke="#fff" stroke-linecap="round" stroke-linejoin="round" stroke-miterlimit="10" d="M39.8 44.2l27.7 17.6"/><g fill="#fff"><path d="M24.2 36.3c3.9 0 3.9-6 0-6s-3.9 6 0 6zm16.6-6.8c3.9 0 3.9-6 0-6-3.8 0-3.8 6 0 6zm26.7 35.6c3.9 0 3.9-6 0-6s-3.9 6 0 6zM39.3 46.8c3.9 0 3.9-6 0-6-3.8 0-3.8 6 0 6zm3.1 17.1c3.9 0 3.9-6 0-6s-3.9 6 0 6zM21.9 80.7c3.9 0 3.9-6 0-6s-3.9 6 0 6zm-9.7 15.1c3.9 0 3.9-6 0-6s-3.9 6 0 6zm-2 21.6c3.9 0 3.9-6 0-6s-3.9 6 0 6z"/><path d="M5.2 121.1c3.9 0 3.9-6 0-6-3.8 0-3.8 6 0 6zm8.3 5.3c3.9 0 3.9-6 0-6-3.8 0-3.8 6 0 6zm14.1 1.4c3.9 0 3.9-6 0-6-3.8 0-3.8 6 0 6zm1.5-19.6c3.9 0 3.9-6 0-6-3.8 0-3.8 6 0 6zm39.5-23.6c3.9 0 3.9-6 0-6s-3.9 6 0 6zm16.7-6.1c3.9 0 3.9-6 0-6-3.8 0-3.8 6 0 6zm30.2-12.1c3.9 0 3.9-6 0-6s-3.9 6 0 6zm45.5 6.4c3.9 0 3.9-6 0-6s-3.9 6 0 6zm-23.4 16.4c3.9 0 3.9-6 0-6-3.8 0-3.8 6 0 6zm-20 25.5c3.9 0 3.9-6 0-6s-3.9 6 0 6zm27.5 1.8c3.9 0 3.9-6 0-6s-3.9 6 0 6zm-43.6 16.6c3.9 0 3.9-6 0-6s-3.9 6 0 6zm2 8.1c3.9 0 3.9-6 0-6s-3.9 6 0 6zm-10.1 4.4c3.9 0 3.9-6 0-6-3.8 0-3.8 6 0 6zm-39.3-23.8c3.9 0 3.9-6 0-6s-3.9 6 0 6zM19 156c3.9 0 3.9-6 0-6-3.8 0-3.8 6 0 6zm9.8-9.1c3.9 0 3.9-6 0-6s-3.9 6 0 6zm3.5 16.4c3.9 0 3.9-6 0-6-3.8 0-3.8 6 0 6zm10.7-13c3.9 0 3.9-6 0-6-3.8 0-3.8 6 0 6zm24.2.4c3.9 0 3.9-6 0-6-3.8 0-3.9 6 0 6zm-1.5 25.7c3.9 0 3.9-6 0-6-3.8 0-3.8 6 0 6zm35.8-9.9c3.9 0 3.9-6 0-6-3.8 0-3.9 6 0 6zm-16.2 23.8c3.9 0 3.9-6 0-6-3.8 0-3.8 6 0 6zM82 200.6c3.9 0 3.9-6 0-6s-3.9 6 0 6zm37.4-5.7c3.9 0 3.9-6 0-6s-3.9 6 0 6zm26.8 11.9c3.9 0 3.9-6 0-6-3.8 0-3.9 6 0 6zm-30.8-21.4c3.9 0 3.9-6 0-6s-3.9 6 0 6zm23.1 8.2c3.9 0 3.9-6 0-6s-3.9 6 0 6zm58.5-30.1c3.9 0 3.9-6 0-6s-3.9 6 0 6zm-15.2 19c3.9 0 3.9-6 0-6-3.8 0-3.9 6 0 6zm48.8-15.7c3.9 0 3.9-6 0-6-3.8 0-3.8 6 0 6zm2-13.5c3.9 0 3.9-6 0-6-3.8 0-3.8 6 0 6zm1.8-40.2c3.9 0 3.9-6 0-6-3.8 0-3.8 6 0 6zm-45.5-4.1c3.9 0 3.9-6 0-6s-3.9 6 0 6zm68.7 15.8c3.9 0 3.9-6 0-6s-3.9 6 0 6zm-65.5-54c3.9 0 3.9-6 0-6-3.8 0-3.8 6 0 6zm66.4 13c3.9 0 3.9-6 0-6s-3.9 6 0 6zm-32.2-50.2c3.9 0 3.9-6 0-6-3.8 0-3.8 6 0 6zm-10.1-17.9c3.9 0 3.9-6 0-6-3.8 0-3.8 6 0 6zm33-8.8c3.9 0 3.9-6 0-6s-3.9 6 0 6zm59.3 56.4c3.9 0 3.9-6 0-6s-3.9 6 0 6zM324 29.1c3.9 0 3.9-6 0-6s-3.9 6 0 6zm-37.4-19c3.9 0 3.9-6 0-6s-3.9 6 0 6zM171.7 196.7c3.9 0 3.9-6 0-6s-3.9 6 0 6zM41.2 130.5c3.9 0 3.9-6 0-6s-3.9 6 0 6z"/></g></svg>